<?xml version="1.0" encoding="UTF-8" standalone="no"?>
<!DOCTYPE svg PUBLIC "-//W3C//DTD SVG 1.1//EN" "http://www.w3.org/Graphics/SVG/1.1/DTD/svg11.dtd">
<svg
    width="100%"
    height="100%"
    viewBox="0 0 1024 500"
    version="1.1"
    xmlns="http://www.w3.org/2000/svg"
    xmlns:xlink="http://www.w3.org/1999/xlink"
    xml:space="preserve"
    style="fill-rule:evenodd;clip-rule:evenodd;stroke-linejoin:round;stroke-miterlimit:1.41421;">
    <g id="Blue"><path
        d="M375.716,379.447c8.134,0 14.73,-6.596 14.73,-14.73l0,-237.434c0,-8.137 -6.596,-14.731 -14.73,-14.731l-237.433,0c-8.137,0 -14.73,6.594 -14.73,14.731l0,237.434c0,8.134 6.593,14.73 14.73,14.73l237.433,0Z"
        style="fill:#3b5998;fill-rule:nonzero;"/><path
        d="M307.705,379.447l0,-103.355l34.693,0l5.194,-40.28l-39.887,0l0,-25.717c0,-11.662 3.238,-19.609 19.962,-19.609l21.33,-0.01l0,-36.026c-3.69,-0.49 -16.351,-1.587 -31.081,-1.587c-30.753,0 -51.806,18.771 -51.806,53.244l0,29.705l-34.781,0l0,40.28l34.781,0l0,103.355l41.595,0Z"
        style="fill:#fff;fill-rule:nonzero;"/></g>
</svg>
