<?xml version="1.0" encoding="utf-8"?>
<!-- Generator: Adobe Illustrator 18.1.1, SVG Export Plug-In . SVG Version: 6.00 Build 0)  -->
<svg version="1.1" id="Layer_1" xmlns="http://www.w3.org/2000/svg" xmlns:xlink="http://www.w3.org/1999/xlink" x="0px" y="0px"
	 viewBox="0 0 155.5 143.9" enable-background="new 0 0 155.5 143.9" xml:space="preserve">
<g>
	<g>
		<g>
			<path fill="#0065A1" d="M133.3-0.1H10.6C4.8-0.1,0,4.6,0,10.3v123.2c0,5.7,4.8,10.4,10.6,10.4h122.7c5.9,0,10.7-4.7,10.7-10.4
				V10.3C144,4.6,139.2-0.1,133.3-0.1z"/>
			<path fill="#FFFFFF" d="M21.3,53.9h21.4v68.7H21.3V53.9z M32,19.8c6.8,0,12.4,5.5,12.4,12.4c0,6.8-5.5,12.4-12.4,12.4
				c-6.8,0-12.4-5.5-12.4-12.4C19.6,25.3,25.2,19.8,32,19.8"/>
			<path fill="#FFFFFF" d="M56.1,53.9h20.5v9.4h0.3c2.9-5.4,9.8-11.1,20.2-11.1c21.6,0,25.6,14.2,25.6,32.7v37.7h-21.3V89.2
				c0-8-0.1-18.2-11.1-18.2c-11.1,0-12.8,8.7-12.8,17.6v34H56.1V53.9z"/>
		</g>
	</g>
	<polygon points="147.5,119 148.7,119 148.7,122.6 149.3,122.6 149.3,119 150.5,119 150.5,118.4 147.5,118.4 	"/>
	<polygon points="154.6,118.4 153.3,121.5 152.1,118.4 151.2,118.4 151.2,122.6 151.8,122.6 151.8,119.4 153.1,122.6 153.5,122.6 
		154.8,119.4 154.8,122.6 155.5,122.6 155.5,118.4 	"/>
</g>
</svg>
